<?xml version="1.0" encoding="UTF-8"?>
<svg width="31px" height="33px" viewBox="0 0 31 33" version="1.1" xmlns="http://www.w3.org/2000/svg" xmlns:xlink="http://www.w3.org/1999/xlink">
    <!-- Generator: Sketch 50 (54983) - http://www.bohemiancoding.com/sketch -->
    <title>ic_calendar_today_24px</title>
    <desc>Created with Sketch.</desc>
    <defs></defs>
    <g id="Page-1" stroke="none" stroke-width="1" fill="none" fill-rule="evenodd">
        <g id="dashboard-home" transform="translate(-44.000000, -281.000000)">
            <g id="Group-8">
                <g id="Group-6" transform="translate(30.000000, 280.000000)">
                    <g id="ic_calendar_today_24px" transform="translate(12.000000, 0.000000)">
                        <path d="M29.1666667,4.375 L27.7083333,4.375 L27.7083333,1.45833333 L24.7916667,1.45833333 L24.7916667,4.375 L10.2083333,4.375 L10.2083333,1.45833333 L7.29166667,1.45833333 L7.29166667,4.375 L5.83333333,4.375 C4.22916667,4.375 2.91666667,5.6875 2.91666667,7.29166667 L2.91666667,30.625 C2.91666667,32.2291667 4.22916667,33.5416667 5.83333333,33.5416667 L29.1666667,33.5416667 C30.7708333,33.5416667 32.0833333,32.2291667 32.0833333,30.625 L32.0833333,7.29166667 C32.0833333,5.6875 30.7708333,4.375 29.1666667,4.375 Z M29.1666667,30.625 L5.83333333,30.625 L5.83333333,11.6666667 L29.1666667,11.6666667 L29.1666667,30.625 Z" id="Shape" fill="#FFFFFF" fill-rule="nonzero"></path>
                        <polygon id="Shape" points="0 0 35 0 35 35 0 35"></polygon>
                    </g>
                </g>
            </g>
        </g>
    </g>
</svg>