<?xml version="1.0" encoding="UTF-8"?>
<svg width="31px" height="31px" viewBox="0 0 31 31" version="1.1" xmlns="http://www.w3.org/2000/svg" xmlns:xlink="http://www.w3.org/1999/xlink">
    <!-- Generator: Sketch 50 (54983) - http://www.bohemiancoding.com/sketch -->
    <title>ic_account_circle_24px</title>
    <desc>Created with Sketch.</desc>
    <defs></defs>
    <g id="Page-1" stroke="none" stroke-width="1" fill="none" fill-rule="evenodd">
        <g id="dashboard-home" transform="translate(-44.000000, -204.000000)">
            <g id="Group-8">
                <g id="Group-5" transform="translate(41.000000, 202.000000)">
                    <g id="ic_account_circle_24px" transform="translate(1.000000, 0.000000)">
                        <path d="M17.5,2.91666667 C9.45,2.91666667 2.91666667,9.45 2.91666667,17.5 C2.91666667,25.55 9.45,32.0833333 17.5,32.0833333 C25.55,32.0833333 32.0833333,25.55 32.0833333,17.5 C32.0833333,9.45 25.55,2.91666667 17.5,2.91666667 Z M17.5,7.29166667 C19.9208333,7.29166667 21.875,9.24583333 21.875,11.6666667 C21.875,14.0875 19.9208333,16.0416667 17.5,16.0416667 C15.0791667,16.0416667 13.125,14.0875 13.125,11.6666667 C13.125,9.24583333 15.0791667,7.29166667 17.5,7.29166667 Z M17.5,28 C13.8541667,28 10.63125,26.1333333 8.75,23.3041667 C8.79375,20.4020833 14.5833333,18.8125 17.5,18.8125 C20.4020833,18.8125 26.20625,20.4020833 26.25,23.3041667 C24.36875,26.1333333 21.1458333,28 17.5,28 Z" id="Shape" fill="#FFFFFF" fill-rule="nonzero"></path>
                        <polygon id="Shape" points="0 0 35 0 35 35 0 35"></polygon>
                    </g>
                </g>
            </g>
        </g>
    </g>
</svg>