<?xml version="1.0" encoding="UTF-8"?>
<svg width="418px" height="138px" viewBox="0 0 418 138" version="1.1" xmlns="http://www.w3.org/2000/svg" xmlns:xlink="http://www.w3.org/1999/xlink">
    <!-- Generator: Sketch 50 (54983) - http://www.bohemiancoding.com/sketch -->
    <title>Group 3</title>
    <desc>Created with Sketch.</desc>
    <defs>
        <linearGradient x1="50%" y1="0%" x2="50%" y2="100%" id="linearGradient-1">
            <stop stop-color="#EC1E7A" offset="0%"></stop>
            <stop stop-color="#3C08DC" offset="100%"></stop>
        </linearGradient>
    </defs>
    <g id="Page-1" stroke="none" stroke-width="1" fill="none" fill-rule="evenodd">
        <g id="wireframe-login-1" transform="translate(-577.000000, -37.000000)">
            <g id="Group-3" transform="translate(577.000000, 37.000000)">
                <path d="M71.0008805,8.27707809 L60.4981875,28.5692695 C55.1121642,24.1192053 49.2773931,21.8942065 42.9936992,21.8942065 C40.2109205,21.8942065 37.6301563,22.6507061 35.2513294,24.163728 C32.8725024,25.6767498 31.6831068,27.7237486 31.6831068,30.3047859 C31.6831068,32.0848116 32.4236739,33.6868107 33.9048303,35.1108312 C35.3859867,36.5348518 36.7773552,37.5138512 38.0789775,38.0478589 C39.3805998,38.5818666 41.1534726,39.2048663 43.3976489,39.9168766 L50.1301445,41.9193955 C58.0296454,44.2334289 64.1785964,47.504177 68.5771822,51.731738 C72.9757679,55.9592991 75.1750278,61.8555457 75.1750278,69.4206549 C75.1750278,81.6138309 71.6741651,90.6473258 64.6723348,96.5214106 C57.1319021,102.840502 47.5269712,106 35.857254,106 C23.1103321,106 11.2163756,102.173002 0.175027757,94.5188917 L11.4856202,73.4256927 C19.4748882,80.3677929 27.2845049,83.8387909 34.9147046,83.8387909 C38.3258527,83.8387909 41.3105625,82.9710414 43.8689236,81.2355164 C46.4272847,79.4999913 47.7064461,76.9857427 47.7064461,73.6926952 C47.7064461,69.1536297 43.4425749,65.6381317 34.9147046,63.1460957 C34.6454034,63.0570944 33.5682149,62.7455946 31.6831068,62.2115869 C26.8356857,60.8765676 23.0206431,59.6305683 20.2378644,58.4735516 C17.4550857,57.3165349 14.6723487,55.6922859 11.8895699,53.6007557 C9.10679122,51.5092255 7.13194562,48.861477 5.9649739,45.6574307 C4.79800217,42.4533845 4.21452506,38.4928867 4.21452506,33.7758186 C4.21452506,23.6296722 7.49097345,15.4639268 14.0439685,9.27833753 C20.5969636,3.09274825 28.9900574,0 39.2235017,0 C44.3402239,0 49.7934907,0.756499572 55.5834658,2.26952141 C61.3734409,3.78254325 66.5125278,5.78504212 71.0008805,8.27707809 Z M110.522854,35.2709924 L110.522854,43.019084 L110.790412,43.019084 C112.930891,39.7239021 115.874006,37.2302884 119.619844,35.5381679 C123.365682,33.8460475 127.334427,33 131.526198,33 C141.5151,33 149.787035,36.6068342 156.342252,43.8206107 C162.897469,51.0343872 166.175028,59.6729777 166.175028,69.7366412 C166.175028,79.8003048 162.942061,88.372102 156.476031,95.4522901 C150.010001,102.532478 141.782659,106.072519 131.793757,106.072519 C122.696721,106.072519 115.606491,103.133617 110.522854,97.2557252 L110.522854,138 L86.1750278,138 L86.1750278,35.2709924 L110.522854,35.2709924 Z M135.935712,58.5627706 C133.197806,55.5209083 129.444282,54 124.675028,54 C119.905773,54 116.13017,55.498542 113.348105,58.495671 C110.566039,61.4928 109.175028,65.1832393 109.175028,69.5670996 C109.175028,74.0404264 110.566039,77.7308657 113.348105,80.6385281 C116.13017,83.5461906 119.905773,85 124.675028,85 C129.444282,85 133.219886,83.5461906 136.001951,80.6385281 C138.784016,77.7308657 140.175028,74.0404264 140.175028,69.5670996 C140.175028,65.1832393 138.761936,61.5151663 135.935712,58.5627706 Z" id="Sp" fill="#222222"></path>
                <path d="M245.610213,36.9781818 L245.610213,48.28 L245.878731,48.28 C250.443569,40.1175349 257.872507,36.0363636 268.165768,36.0363636 L272.864843,36.0363636 L272.864843,59.5818182 C270.179644,58.0569621 266.733691,57.2945455 262.52688,57.2945455 C256.17191,57.2945455 251.763775,59.1108909 249.302343,62.7436364 C246.840911,66.3763818 245.610213,71.511482 245.610213,78.1490909 L245.610213,106 L221.175028,106 L221.175028,36.9781818 L245.610213,36.9781818 Z M288.827665,41.9563636 C296.009255,35.3187547 304.786621,32 315.160028,32 C325.533435,32 334.290853,35.3187547 341.432545,41.9563636 C348.574237,48.5939726 352.145029,57.5635799 352.145029,68.8654545 C352.145029,80.1673292 348.574237,89.1145125 341.432545,95.7072727 C334.290853,102.300033 325.533435,105.596364 315.160028,105.596364 C304.866417,105.596364 296.128947,102.300033 288.947358,95.7072727 C281.765769,89.1145125 278.175028,80.1673292 278.175028,68.8654545 C278.175028,57.5635799 281.725871,48.5939726 288.827665,41.9563636 Z M327.374102,57.8327273 C324.599397,54.7830151 320.795422,53.2581818 315.962065,53.2581818 C311.128707,53.2581818 307.302357,54.760591 304.482898,57.7654545 C301.66344,60.7703181 300.253731,64.4702811 300.253731,68.8654545 C300.253731,73.3503255 301.66344,77.0502885 304.482898,79.9654545 C307.302357,82.8806206 311.128707,84.3381818 315.962065,84.3381818 C320.795422,84.3381818 324.621773,82.8806206 327.441231,79.9654545 C330.26069,77.0502885 331.670398,73.3503255 331.670398,68.8654545 C331.670398,64.4702811 330.238314,60.7927421 327.374102,57.8327273 Z M415.161139,36.44 L406.971324,52.0472727 C402.764513,49.8048373 398.378754,48.6836364 393.813917,48.6836364 C392.023784,48.6836364 390.300808,49.0872687 388.644935,49.8945455 C386.989063,50.7018222 386.161139,51.8678712 386.161139,53.3927273 C386.161139,54.0206092 386.295397,54.6036337 386.563917,55.1418182 C386.832437,55.6800027 387.23521,56.1509071 387.77225,56.5545455 C388.30929,56.9581838 388.846321,57.2945441 389.383361,57.5636364 C389.920401,57.8327286 390.614067,58.0793928 391.46438,58.3036364 C392.314693,58.5278799 392.985982,58.684848 393.478268,58.7745455 C393.970555,58.8642429 394.641844,58.976363 395.492157,59.1109091 C396.34247,59.2454552 396.901878,59.3575753 397.170398,59.4472727 C410.506885,62.1381953 417.175028,68.9550968 417.175028,79.8981818 C417.175028,88.3297391 413.975214,94.7205843 407.575491,99.0709091 C401.175767,103.421234 393.545442,105.596364 384.684287,105.596364 C374.749052,105.596364 365.485256,102.950329 356.89262,97.6581818 L365.753731,80.5709091 C368.43893,82.4545549 371.616367,84.0915082 375.286139,85.4818182 C378.95591,86.8721282 382.222853,87.5672727 385.087065,87.5672727 C386.966704,87.5672727 388.712057,87.1187924 390.323176,86.2218182 C391.934295,85.324844 392.739843,84.0242509 392.739843,82.32 C392.739843,81.3333284 392.493703,80.4587917 392.001417,79.6963636 C391.50913,78.9339356 390.681206,78.3060631 389.51762,77.8127273 C388.354034,77.3193915 387.257595,76.9381832 386.228268,76.6690909 C385.198942,76.3999987 383.744482,76.0636384 381.864843,75.66 C379.985204,75.2563616 378.508366,74.9200013 377.434287,74.6509091 C372.779943,73.3951452 369.065474,71.4442557 366.290768,68.7981818 C363.516063,66.152108 362.128731,62.0485127 362.128731,56.4872727 C362.128731,51.1054276 363.650321,46.5085039 366.693546,42.6963636 C369.736771,38.8842234 373.473617,36.1484931 377.904194,34.4890909 C382.334772,32.8296887 387.190433,32 392.471324,32 C401.06396,32 408.627156,33.4799852 415.161139,36.44 Z" id="ros" fill="#222222"></path>
                <path d="M205.719145,37.099734 L205.719145,106 L181.63091,106 L181.63091,37.099734 L205.719145,37.099734 Z M184.145616,9.02925532 C186.792688,6.34307168 189.969127,5 193.675028,5 C197.380929,5 200.557367,6.34307168 203.20444,9.02925532 C205.851512,11.715439 207.175028,14.938811 207.175028,18.6994681 C207.175028,22.4601252 205.851512,25.6834972 203.20444,28.3696809 C200.557367,31.0558645 197.380929,32.3989362 193.675028,32.3989362 C189.969127,32.3989362 186.792688,31.0558645 184.145616,28.3696809 C181.498544,25.6834972 180.175028,22.4601252 180.175028,18.6994681 C180.175028,14.938811 181.498544,11.715439 184.145616,9.02925532 Z" id="i" fill="url(#linearGradient-1)"></path>
            </g>
        </g>
    </g>
</svg>