<?xml version="1.0" encoding="UTF-8"?>
<svg width="323px" height="106px" viewBox="0 0 323 106" version="1.1" xmlns="http://www.w3.org/2000/svg" xmlns:xlink="http://www.w3.org/1999/xlink">
    <!-- Generator: Sketch 50 (54983) - http://www.bohemiancoding.com/sketch -->
    <title>logo-2</title>
    <desc>Created with Sketch.</desc>
    <defs>
        <linearGradient x1="50%" y1="0%" x2="50%" y2="100%" id="linearGradient-1">
            <stop stop-color="#EC1E7A" offset="0%"></stop>
            <stop stop-color="#3C08DC" offset="100%"></stop>
        </linearGradient>
    </defs>
    <g id="Page-1" stroke="none" stroke-width="1" fill="none" fill-rule="evenodd">
        <g id="dashboard-home" transform="translate(-160.000000, -443.000000)" fill-rule="nonzero">
            <g id="logo-2" transform="translate(160.000000, 443.000000)">
                <path d="M53.7593821,6.35775563 L45.7874585,21.9445114 C41.6992722,18.5263461 37.27047,16.8172891 32.5009192,16.8172891 C30.3886896,16.8172891 28.4297963,17.3983685 26.6241807,18.5605447 C24.818565,19.7227209 23.9157708,21.2950533 23.9157708,23.2775892 C23.9157708,24.6448553 24.477888,25.8753763 25.6021392,26.9691892 C26.7263905,28.0630021 27.7824894,28.8149872 28.7704678,29.225167 C29.7584462,29.6353468 31.1041207,30.1138828 32.8075316,30.6607893 L37.9177391,32.198956 C43.9137458,33.9764019 48.5810219,36.4887157 51.9197075,39.7359727 C55.2583931,42.9832297 56.9277109,47.5122308 56.9277109,53.3231117 C56.9277109,62.6888846 54.2704295,69.627656 48.9557872,74.1396342 C43.2323262,78.9934291 35.9418365,81.4202899 27.0840994,81.4202899 C17.4087249,81.4202899 8.38078205,78.4807117 0,72.6014675 L8.58514844,56.3994451 C14.6492916,61.731783 20.577073,64.3979119 26.3686703,64.3979119 C28.957855,64.3979119 31.2233576,63.7313796 33.1652462,62.3982952 C35.1071347,61.0652107 36.0780644,59.1339763 36.0780644,56.604534 C36.0780644,53.1180054 32.8416321,50.4176954 26.3686703,48.5035228 C26.164261,48.4351595 25.346636,48.1958915 23.9157708,47.7857117 C20.236403,46.7602621 17.3406477,45.8031901 15.2284181,44.9144672 C13.1161885,44.0257442 11.0039905,42.7781326 8.89176086,41.171595 C6.77953125,39.5650573 5.28055206,37.5312794 4.39477836,35.0702004 C3.50900466,32.6091214 3.06612445,29.5669999 3.06612445,25.9437447 C3.06612445,18.1503279 5.55306714,11.8780887 10.5270273,7.12683897 C15.5009874,2.37558924 21.8716489,0 29.639203,0 C33.5229801,0 37.6622067,0.581079381 42.0570071,1.74325558 C46.4518075,2.90543177 50.3525602,4.44358308 53.7593821,6.35775563 Z M83.7579885,27.0922116 L83.7579885,33.0436442 L83.9610747,33.0436442 C85.5857756,30.5125625 87.8197062,28.597178 90.6629327,27.2974333 C93.5061591,25.9976887 96.51858,25.3478261 99.7002857,25.3478261 C107.282223,25.3478261 113.560921,28.1182929 118.536568,33.6593097 C123.512214,39.2003264 126,45.8357655 126,53.5658258 C126,61.2958863 123.546061,67.8800204 118.638111,73.3184257 C113.73016,78.7568309 107.48531,81.4759929 99.9033726,81.4759929 C92.9983935,81.4759929 87.6166527,79.2185754 83.7579885,74.703673 L83.7579885,106 L65.2771085,106 L65.2771085,27.0922116 L83.7579885,27.0922116 Z M103.047266,44.9829977 C100.969097,42.6464948 98.1200362,41.4782609 94.5,41.4782609 C90.8799631,41.4782609 88.014144,42.6293149 85.9024561,44.9314574 C83.7907674,47.2336 82.7349398,50.0682853 82.7349398,53.4355982 C82.7349398,56.8716319 83.7907674,59.7063171 85.9024561,61.939739 C88.014144,64.1731609 90.8799631,65.2898551 94.5,65.2898551 C98.1200362,65.2898551 100.985856,64.1731609 103.097544,61.939739 C105.209232,59.7063171 106.26506,56.8716319 106.26506,53.4355982 C106.26506,50.0682853 105.192472,47.2507799 103.047266,44.9829977 Z" id="Sp" fill="#FFFFFF"></path>
                <path d="M188.199074,27.9690909 L188.199074,36.98 L188.410052,36.98 C191.996711,30.4720886 197.833733,27.2181818 205.921296,27.2181818 L209.613426,27.2181818 L209.613426,45.9909091 C207.503627,44.7751455 204.796092,44.1672728 201.490741,44.1672728 C196.49755,44.1672728 193.034016,45.61544 191.100033,48.5118182 C189.166051,51.4081963 188.199074,55.5023978 188.199074,60.7945454 L188.199074,83 L169,83 L169,27.9690909 L188.199074,27.9690909 Z M222.155643,31.9381818 C227.798321,26.6460342 234.694823,24 242.845357,24 C250.995891,24 257.87672,26.6460342 263.488049,31.9381818 C269.099378,37.2303295 271.905001,44.3817732 271.905001,53.3927272 C271.905001,62.4036814 269.099378,69.5372465 263.488049,74.7936363 C257.87672,80.0500263 250.995891,82.6781821 242.845357,82.6781821 C234.75752,82.6781821 227.892365,80.0500263 222.249688,74.7936363 C216.607011,69.5372465 213.785714,62.4036814 213.785714,53.3927272 C213.785714,44.3817732 216.575662,37.2303295 222.155643,31.9381818 Z M252.44213,44.5963637 C250.262004,42.1648364 247.273167,40.9490909 243.475529,40.9490909 C239.677891,40.9490909 236.671473,42.1469577 234.456184,44.5427272 C232.240895,46.9384969 231.133267,49.8884674 231.133267,53.3927272 C231.133267,56.9685028 232.240895,59.9184733 234.456184,62.2427272 C236.671473,64.5669813 239.677891,65.7290909 243.475529,65.7290909 C247.273167,65.7290909 250.279585,64.5669813 252.494874,62.2427272 C254.710163,59.9184733 255.817791,56.9685028 255.817791,53.3927272 C255.817791,49.8884674 254.692582,46.9563755 252.44213,44.5963637 Z M321.417659,27.54 L314.982804,39.9836363 C311.677453,38.1957487 308.231499,37.3018182 304.644841,37.3018182 C303.238308,37.3018182 301.884541,37.6236332 300.583498,38.2672728 C299.282456,38.9109123 298.631944,39.8406 298.631944,41.0563637 C298.631944,41.5569722 298.737433,42.0218161 298.948413,42.4509091 C299.159393,42.8800022 299.475857,43.255453 299.897817,43.5772728 C300.319777,43.8990925 300.74173,44.1672716 301.16369,44.3818182 C301.58565,44.5963647 302.130674,44.7930294 302.798777,44.9718182 C303.46688,45.1506069 303.994321,45.2757572 304.381117,45.3472728 C304.767914,45.4187883 305.295355,45.5081813 305.963459,45.6154546 C306.631562,45.7227278 307.071096,45.8121208 307.282076,45.8836363 C317.760745,48.0291017 323,53.4641988 323,62.1890909 C323,68.9115487 320.48586,74.0069523 315.457507,77.4754546 C310.429152,80.9439568 304.433897,82.6781821 297.471561,82.6781821 C289.665305,82.6781821 282.386608,80.5685056 275.635251,76.3490909 L282.597552,62.7254546 C284.707352,64.2272803 287.203909,65.5324187 290.087302,66.6409091 C292.970693,67.7493995 295.537577,68.3036363 297.788029,68.3036363 C299.264888,68.3036363 300.636237,67.9460642 301.902116,67.2309091 C303.167996,66.515754 303.800926,65.4787946 303.800926,64.12 C303.800926,63.3333294 303.60753,62.6360637 303.220734,62.0281818 C302.833937,61.4203 302.183426,60.919699 301.269179,60.5263637 C300.354933,60.1330284 299.493446,59.829092 298.684689,59.6145454 C297.875932,59.399999 296.733142,59.1318198 295.256283,58.81 C293.779424,58.4881802 292.619051,58.220001 291.775132,58.0054546 C288.118148,57.0042374 285.199636,55.4487985 283.01951,53.3390909 C280.839385,51.2293834 279.749338,47.957598 279.749338,43.5236363 C279.749338,39.2327058 280.944873,35.5675909 283.335978,32.5281818 C285.727084,29.4887727 288.663177,27.3075823 292.144345,25.9845454 C295.625513,24.6615086 299.440675,24 303.589947,24 C310.341304,24 316.283815,25.1799882 321.417659,27.54 Z" id="ros" fill="#FFFFFF"></path>
                <path d="M156.921568,29.1077127 L156.921568,83 L139.078431,83 L139.078431,29.1077127 L156.921568,29.1077127 Z M140.941176,7.15159575 C142.90197,5.05052141 145.254888,4 148,4 C150.745112,4 153.098029,5.05052141 155.058824,7.15159575 C157.019618,9.25267011 158,11.7739215 158,14.7154255 C158,17.6569296 157.019618,20.178181 155.058824,22.2792554 C153.098029,24.3803297 150.745112,25.4308511 148,25.4308511 C145.254888,25.4308511 142.90197,24.3803297 140.941176,22.2792554 C138.980382,20.178181 138,17.6569296 138,14.7154255 C138,11.7739215 138.980382,9.25267011 140.941176,7.15159575 Z" id="i" fill="url(#linearGradient-1)"></path>
            </g>
        </g>
    </g>
</svg>