<?xml version="1.0" encoding="UTF-8"?>
<svg width="26px" height="28px" viewBox="0 0 26 28" version="1.1" xmlns="http://www.w3.org/2000/svg" xmlns:xlink="http://www.w3.org/1999/xlink">
    <!-- Generator: Sketch 50 (54983) - http://www.bohemiancoding.com/sketch -->
    <title>Group 11</title>
    <desc>Created with Sketch.</desc>
    <defs>
        <polygon id="path-1" points="0.00328902106 0 25.8021919 0 25.8021919 24.3664485 0.00328902106 24.3664485"></polygon>
    </defs>
    <g id="Page-1" stroke="none" stroke-width="1" fill="none" fill-rule="evenodd">
        <g id="dashboard-home" transform="translate(-1297.000000, -26.000000)">
            <g id="header">
                <g id="notification" transform="translate(1297.000000, 20.000000)">
                    <g id="Group-11" transform="translate(0.000000, 6.000000)">
                        <g id="Group-3">
                            <mask id="mask-2" fill="white">
                                <use xlink:href="#path-1"></use>
                            </mask>
                            <g id="Clip-2"></g>
                            <path d="M12.9011851,1.10756584 C11.9727493,1.10756584 11.2172063,1.85295549 11.2172063,2.76891461 C11.2172063,2.84089557 11.229595,2.91179493 11.2396813,2.98047699 C11.2800814,3.25401547 11.1150822,3.53977611 10.8456566,3.61840896 C7.75945849,4.51111351 5.60394372,7.34979179 5.60394372,10.5218755 C5.60394372,14.2067492 3.31599103,17.8240766 1.39739541,20.208642 C1.13580861,20.5353956 1.05495351,20.9673355 1.1818549,21.3604997 C1.30420648,21.7414959 1.59720344,22.0250392 1.98454049,22.1369315 C3.74372822,22.6486399 7.06563949,23.2588827 12.9011851,23.2588827 C18.7378819,23.2588827 22.0586968,22.6486399 23.8167334,22.1369315 C24.2052216,22.0239576 24.4970674,21.7414959 24.6205701,21.3594181 C24.7474167,20.9673355 24.6666164,20.5364772 24.4050296,20.208642 C22.486434,17.8240766 20.1984265,14.2078308 20.1984265,10.5218755 C20.1984265,7.35092748 18.0429666,4.51111351 14.9567685,3.61840896 C14.688494,3.54091179 14.5189449,3.28062301 14.5593451,3.00703045 C14.5728301,2.91622952 14.5851639,2.84424855 14.5851639,2.76891461 C14.5840676,1.85295549 13.8296209,1.10756584 12.9011851,1.10756584 Z M12.9011851,24.3664485 C8.17595819,24.3664485 4.2915695,23.9632794 1.66682106,23.1990698 C0.928106926,22.9852901 0.346608003,22.4226921 0.11193635,21.6961224 C-0.128271821,20.9507328 0.0232424155,20.1388784 0.517253379,19.520848 C1.99912182,17.6811963 4.48134601,14.0650046 4.48134601,10.5218755 C4.48134601,7.01308745 6.76814754,3.8565248 10.095705,2.69471635 C10.1361051,1.20171976 11.3789165,0 12.9011851,0 C14.4235085,0 15.6651688,1.20171976 15.7067201,2.69471635 C19.0342775,3.8565248 21.321079,7.01308745 21.321079,10.5218755 C21.321079,14.0660862 23.8043996,17.6811963 25.2840753,19.520848 C25.2840753,19.520848 25.2840753,19.520848 25.2851717,19.520848 C25.7780315,20.1377427 25.9306969,20.9507328 25.6904887,21.6961224 C25.455817,22.4226921 24.8743181,22.9852901 24.1333565,23.1990698 C22.3045511,23.7318155 18.871471,24.3664485 12.9011851,24.3664485 Z" id="Fill-1" fill="#222222" mask="url(#mask-2)"></path>
                        </g>
                        <path d="M10.2022879,24.2633068 C10.4685826,25.7184473 11.6217076,26.7720435 13,26.7720435 C14.3977121,26.7720435 15.5634487,25.6890075 15.8091518,24.2633068 C14.994308,24.2989224 14.0674107,24.3161306 13,24.3161306 C11.9371652,24.3161306 11.0148438,24.2989224 10.2022879,24.2633068 Z M13,28 C10.794308,28 9,26.0720843 9,23.7021523 C9,23.5327087 9.06512277,23.3288487 9.17829241,23.2146272 C9.29257813,23.0980073 9.44570313,22.9801283 9.60340402,23.0046514 C10.5485491,23.0611326 11.6605469,23.0881741 13,23.0881741 C14.3394531,23.0881741 15.452567,23.0611326 16.396596,23.0046514 C16.5645647,22.9801283 16.7063058,23.0550169 16.8217076,23.1716967 C16.9359933,23.2883166 17,23.4491861 17,23.6174305 L17,23.7021523 C17,26.0720843 15.205692,28 13,28 Z" id="Fill-4" fill="#222222"></path>
                    </g>
                </g>
            </g>
        </g>
    </g>
</svg>